# xmcd
#
# Track frame offsets: 
#        150
#        12917
#        25825
#        41944
#        56313
#        65570
#        79656
#        91745
#        105816
#        118053
#        132375
#        145464
#        156745
#        165647
#        176024
#        189645
#        203793
#        216047
#        228563
#        239201
#
# Disc length: 3381 seconds
#
# Revision: 0
# Processed by: cddbd v1.5.2PL0 Copyright (c) Steve Scherf et al.
# Submitted via: ExactAudioCopy v1.0b6
#
DISCID=200d3314
DTITLE=Various Artist - Best of Blues CD 2
DYEAR=2016
DGENRE=Blues
TTITLE0=Clifton Chenier - The big Wheel
TTITLE1=Muddy Waters - I'myour Hootchie Coochie Man
TTITLE2=Ahmad Jamal Trio - But not for me
TTITLE3=Ramsey Lewis Trio - CC Rider
TTITLE4=Sugarpie Desanto - It won't be long
TTITLE5=Etta James - I just want to make Love
TTITLE6=Chuck Berry - Jonny B Goode
TTITLE7=Little Walter and the Jukes - Blues with a Feeling
TTITLE8=Eugene Fox - Stay at Home
TTITLE9=Lowell Fulson - Reconsider Baby
TTITLE10=Sonny Boy Williamson - Let me Explain
TTITLE11=Bo Diddley - Who do you Love
TTITLE12=Gene Simmons - Bad Boy Willie
TTITLE13=Little Milton - Satisfied
TTITLE14=Gene Ammons - Bless you
TTITLE15=Ike Turner and his Kinks - Heartbroken and Worried
TTITLE16=Memphis Slim - Walking alone
TTITLE17=Bill Broozy - Little City Woman
TTITLE18=Clarence Frogman Henry - Ain't got no Home
TTITLE19=Paul Gayten - Driving Home
EXTD=
EXTT0=
EXTT1=
EXTT2=
EXTT3=
EXTT4=
EXTT5=
EXTT6=
EXTT7=
EXTT8=
EXTT9=
EXTT10=
EXTT11=
EXTT12=
EXTT13=
EXTT14=
EXTT15=
EXTT16=
EXTT17=
EXTT18=
EXTT19=
PLAYORDER=
